<?xml version="1.0" standalone="no"?>
<!DOCTYPE svg PUBLIC "-//W3C//DTD SVG 20010904//EN"
 "http://www.w3.org/TR/2001/REC-SVG-20010904/DTD/svg10.dtd">
<svg version="1.0" xmlns="http://www.w3.org/2000/svg"
 width="500.000000pt" height="500.000000pt" viewBox="0 0 500.000000 500.000000"
 preserveAspectRatio="xMidYMid meet">

<g transform="translate(0.000000,500.000000) scale(0.100000,-0.100000)"
fill="#000000" stroke="none">
<path d="M823 3763 c-24 -8 -64 -34 -90 -58 -42 -38 -46 -45 -33 -58 8 -8 76
-50 150 -94 74 -44 241 -143 370 -220 129 -77 426 -254 660 -393 234 -139 462
-275 508 -302 46 -28 91 -48 100 -46 9 3 397 227 862 498 465 271 864 504 888
518 23 13 42 30 42 38 0 26 -80 93 -136 114 -54 20 -67 20 -1667 19 -1407 0
-1617 -2 -1654 -16z"/>
<path d="M622 2408 l3 -1033 26 -56 c31 -65 82 -119 142 -151 l42 -23 1645 0
1645 0 55 31 c65 37 110 92 139 169 21 56 21 63 19 1065 l-3 1009 -65 -38
c-522 -304 -1375 -803 -1552 -907 -125 -74 -232 -134 -237 -134 -5 0 -76 40
-157 89 -327 195 -1209 720 -1359 809 -88 52 -191 114 -230 137 -38 23 -80 47
-93 54 l-22 12 2 -1033z"/>
</g>
</svg>
